<?xml version="1.0" encoding="utf-8"?>
<!-- Generator: Adobe Illustrator 27.5.0, SVG Export Plug-In . SVG Version: 6.00 Build 0)  -->
<svg version="1.1" xmlns="http://www.w3.org/2000/svg" xmlns:xlink="http://www.w3.org/1999/xlink" x="0px" y="0px"
	 viewBox="0 0 500 500" style="enable-background:new 0 0 500 500;" xml:space="preserve">
<g id="BACKGROUND">
</g>
<g id="OBJECTS">
	<g>
		<path style="fill:#4F7CA6;" d="M433.289,343.144c-4.399-2.493-10.281-1.856-14.706,3.571c-3.093,3.794-7.026,21.279-14.036,14.269
			c-6.313-6.317,2.427-27.351,4.237-34.143c4.311-16.177,11.783-36.143,8.555-53.087c-0.92-4.831-3.534-9.584-7.879-11.888
			c-8.496-4.506-22.183-0.389-27.645,7.328c-4.422,6.247-4.706,14.572-4.594,21.931c0.109,7.196,5.863,32.013-6.788,32.013
			c-21.241,0-1.287-39.263-39.16-39.263c-37.873,0,28.217,126.689,28.217,126.689l54.068,0.215
			c6.911-10.06,13.16-20.775,18.337-31.823c3.331-7.108,6.886-14.977,7.546-22.905C439.941,350.052,437.201,345.361,433.289,343.144
			z"/>
		<path style="fill:#6295CD;" d="M92.044,248.289c-18.368,18.368,23.364,55.529,13.464,65.429c-9.9,9.9-18.41-31.873-34.847-15.436
			c-16.438,16.438,34.847,112.496,34.847,112.496h21.384C175.202,258.363,110.412,229.921,92.044,248.289z"/>
		<path style="fill:#D16062;" d="M76.464,410.778c0,0-29.31-35.1-14.368-44.305c14.942-9.205,22.881,16.534,22.881,16.534
			s-1.616-18.823,10.452-16.534s0,27.576,0,27.576s5.002-12.764,12.069-6.418s-2.854,23.147-2.854,23.147H76.464z"/>
		<path style="fill:#D16062;" d="M412.241,410.597c0,0-12.516-24.787,0-33.296c12.516-8.508,16.869,16.648,16.869,16.648
			s3.809-16.217,13.604-10.62c9.795,5.597-3.809,27.449-3.809,27.449L412.241,410.597z"/>
	</g>
	
		<line style="fill:none;stroke:#3B2448;stroke-width:0.9676;stroke-miterlimit:10;" x1="459.857" y1="410.778" x2="40.143" y2="410.778"/>
	<g>
		<g>
			<rect x="125.797" y="92.478" style="fill:#F5F6FA;" width="248.407" height="332.754"/>
			<path style="fill:#3B2448;" d="M373.719,92.962v331.787H126.281V92.962H373.719 M374.687,91.994H125.313v333.722h249.374V91.994
				L374.687,91.994z"/>
		</g>
		<g>
			<g>
				<g>
					
						<rect x="165.668" y="130.118" style="fill:none;stroke:#3B2448;stroke-width:0.9676;stroke-miterlimit:10;" width="16.086" height="16.086"/>
					
						<rect x="165.668" y="178.17" style="fill:none;stroke:#3B2448;stroke-width:0.9676;stroke-miterlimit:10;" width="16.086" height="16.086"/>
					
						<rect x="165.668" y="226.223" style="fill:none;stroke:#3B2448;stroke-width:0.9676;stroke-miterlimit:10;" width="16.086" height="16.086"/>
					
						<rect x="165.668" y="274.275" style="fill:none;stroke:#3B2448;stroke-width:0.9676;stroke-miterlimit:10;" width="16.086" height="16.086"/>
				</g>
				<g>
					
						<rect x="165.668" y="322.328" style="fill:none;stroke:#3B2448;stroke-width:0.9676;stroke-miterlimit:10;" width="16.086" height="16.086"/>
					
						<rect x="165.668" y="370.381" style="fill:none;stroke:#3B2448;stroke-width:0.9676;stroke-miterlimit:10;" width="16.086" height="16.086"/>
				</g>
			</g>
			<rect x="190.896" y="130.118" style="fill:#FFFFFF;" width="143.436" height="16.086"/>
			<rect x="190.896" y="178.17" style="fill:#FFFFFF;" width="143.436" height="16.086"/>
			<rect x="190.896" y="225.817" style="fill:#FFFFFF;" width="143.436" height="16.086"/>
			<rect x="190.896" y="273.87" style="fill:#FFFFFF;" width="143.436" height="16.086"/>
			<rect x="190.896" y="322.278" style="fill:#FFFFFF;" width="143.436" height="16.086"/>
			<rect x="190.896" y="370.33" style="fill:#FFFFFF;" width="143.436" height="16.086"/>
		</g>
		<polyline style="fill:none;stroke:#D16062;stroke-width:1.8464;stroke-miterlimit:10;" points="168.153,231.273 173.891,237.012 
			186.413,217.011 		"/>
		<polyline style="fill:none;stroke:#D16062;stroke-width:1.8464;stroke-miterlimit:10;" points="168.153,183.592 173.891,189.33 
			186.413,169.329 		"/>
		<polyline style="fill:none;stroke:#D16062;stroke-width:1.8464;stroke-miterlimit:10;" points="168.153,135.507 173.891,141.245 
			186.413,121.244 		"/>
	</g>
	<g>
		<g>
			<path style="fill:#F5F6FA;" d="M122.066,458.373c0,2.396,12.65,4.338,28.254,4.338c15.604,0,28.254-1.942,28.254-4.338
				c0-2.396-12.65-4.338-28.254-4.338C134.716,454.035,122.066,455.977,122.066,458.373z"/>
		</g>
		<g>
			<g>
				<path style="fill:#D16062;" d="M144.699,346.334v28.348h23.09l4.572-44.351c0,0,24.69-16.003,12.117-43.665
					c-3.886,0-3.886,0-3.886,0s6.401,23.09-16.689,34.292c-23.09,11.202-30.863,10.974-44.58,59.44
					c1.372,0.686,2.743,1.372,2.743,1.372L144.699,346.334z"/>
				<path style="fill:#D16062;" d="M144.699,367.366c0,0-7.747,10.514-6.858,23.547c1.372,20.118,8.916,21.033-25.833,38.178
					l1.143,5.258c0,0,30.177-4.572,37.264-18.061c7.087-13.488,6.173-48.923,6.173-48.923H144.699z"/>
				<path style="fill:#D16062;" d="M151.988,371.808c0,0-2.73,13.194,4.05,24.366c10.466,17.246,16.423,16.104,11.393,57.712
					l4.794,1.353c0,0,6.781-27.15,7.521-42.668c0.74-15.517-16.24-46.635-16.24-46.635L151.988,371.808z"/>
				<g>
					
						<rect x="172.523" y="281.246" transform="matrix(0.9466 0.3224 -0.3224 0.9466 100.7697 -43.082)" style="fill:#6295CD;" width="15.825" height="2.808"/>
					
						<rect x="185.358" y="283.575" transform="matrix(0.3224 -0.9466 0.9466 0.3224 -143.0509 369.7588)" style="fill:#D16062;" width="2.808" height="2.458"/>
					
						<rect x="184.577" y="284.134" transform="matrix(0.3224 -0.9466 0.9466 0.3224 -143.3282 368.8393)" style="fill:#3B2448;" width="2.808" height="0.808"/>
					<g>
						<polygon style="fill:#3B2448;" points="169.845,279.042 170.567,279.693 170.814,278.968 						"/>
						<polygon style="fill:#D16062;" points="170.567,279.693 172.493,281.427 173.398,278.77 170.814,278.968 						"/>
					</g>
				</g>
				<path style="fill:#D16062;" d="M180.592,286.665c0,0-2.859-3.417-2.739-4.099s1.507,0.04,2.739,1.604
					c1.713,0.602,3.517,1.243,3.517,1.243l0.369,1.251H180.592z"/>
				<path style="fill:#D16062;" d="M184.04,282.394l-5.4-1.839c0,0,0.915-0.361,3.68,0.362
					C184.04,281.43,184.04,282.394,184.04,282.394z"/>
				<path style="fill:#D16062;" d="M122.066,381.769c0,0-2.264,3.245-4.426,3.817c-2.289,0.572-2.099-0.636-1.463-1.017
					c0.636-0.382,2.035-1.399,2.035-1.399s-3.752,0.748-5.214,2.568c-1.463,1.82-1.717-1.487-0.572-3.585
					c1.145-2.098,6.897-1.755,6.897-1.755L122.066,381.769z"/>
			</g>
			<path style="fill:#D16062;" d="M150.163,303.443c0,0,5.232-1.744,8.412,4.309c3.18,6.053,1.929,13.004-4.206,14.024
				C145.546,323.243,142.058,307.034,150.163,303.443z"/>
			<polygon style="fill:#D16062;" points="149.021,318.546 150.599,328.76 158.405,325.687 157.076,317.301 			"/>
			<path style="fill:#3B2448;" d="M113.578,429.15c0.029,1.708,0.256,3.401,0.561,5.082c0.337,1.855,0.393,4.74-1.705,6.938
				c-1.199-5.356-2.238-11.51-2.238-11.51l3.368-1.339L113.578,429.15z"/>
			<path style="fill:#3B2448;" d="M167.772,453.951c1.876,0.363,3.78,0.523,5.689,0.598c1.883,0.074,4.63,0.647,6.308,3.099h-12.338
				v-3.763L167.772,453.951z"/>
			<path style="fill:#4C3259;" d="M144.699,367.366c0,0-13.167,11.099-10.383,34.554c8.453,3.518,21.158,3.323,21.158,3.323
				l0.564-9.07l2.366,9.072c0,0,11.925,2.539,24.434-6.648c-3.069-19.741-14.295-31.231-14.295-31.231H144.699z"/>
			<path style="fill:#6295CD;" d="M144.699,346.334l-7.208-8.915c0,0,3.08-6.654,12.803-10.63c4.984,1.835,8.09-3.209,8.09-3.209
				s5.283-4.339,13.598-7.955c7.142,4.789,4.406,14.562,4.406,14.562l-2.99,2.541c0,0,1.028,2.987-0.046,7.521
				c-2.04,8.614-3.84,17.283-4.708,26.092l-0.101,1.025h-23.844V346.334z"/>
			<path style="fill:#3B2448;" d="M151.445,299.5c0,0-11.413-0.391-13.954,8.796c-2.54,9.187,5.573,10.75-3.175,17.2
				c-8.747,6.45-11.875,10.992-11.288,16.735c0.586,5.743,9.273,19.022,28.417,14.929s17.125-18.178,12.63-24.237
				c-4.496-6.059-11.213-11.839-6.877-20.383C161.533,303.995,159.188,299.275,151.445,299.5z"/>
		</g>
	</g>
	<g>
		<path style="fill:#3B2448;" d="M159.339,38.655c-0.979-0.189-1.976-0.293-2.972-0.253c-1.778,0.072-5.254-0.201-7.238-3.098
			h12.338v3.763L159.339,38.655z"/>
		<path style="fill:#3B2448;" d="M170.824,41.196c0,0-5.474-1.59-6.141-6.406l11.041,5.506l-1.679,3.367L170.824,41.196z"/>
		<g>
			<path style="fill:#D16062;" d="M266.541,91.999h-23.256c0,0-12.946-40.713-0.713-38.186c12.624,2.608,8.856,31.074,8.856,31.074
				l17.039,1.926L266.541,91.999z"/>
			<polygon style="fill:#4F7CA6;" points="160.113,80.442 169.928,40.859 174.452,42.846 173.151,80.442 			"/>
			<path style="fill:#6295CD;" d="M156.104,38.41h5.334l4.268,39.798c0,0,24.902-14.839,39.714-6.278
				c0,9.927,0.328,20.069,0.328,20.069h-51.821L156.104,38.41z"/>
			<path style="fill:#3B2448;" d="M204.171,91.999l3.121-0.009c7.358-0.19,25.899-1.679,35.607-11.548
				c13.225-13.444,4.536-28.596-7.466-28.596c-12.001,0-19.984,20.084-30.013,20.084"/>
			<path style="fill:#D16062;" d="M243.678,91.999h-26.374c0,0-0.444-32.893,11.112-37.634c11.557-4.741,0.148,30.522,0.148,30.522
				l17.039,1.926L243.678,91.999z"/>
			<polygon style="fill:#3B2448;" points="234.322,92.044 234.322,89.933 249.3,89.933 255.13,67.598 289.117,67.598 
				282.757,91.966 			"/>
			<path style="fill:#6295CD;" d="M272.219,78.047c-0.65-1.35-2.306,0.45-2.306,0.45s-0.538-1.8-2.026-0.45
				c-1.488,1.35,0.909,4.051,0.909,4.051S272.869,79.397,272.219,78.047z"/>
		</g>
		<path style="fill:#6295CD;" d="M245.604,32.543c0,0,9.388,2.027,9.388,12.995c0,2.516,0,3.411,0,3.411h-8.452L245.604,32.543z"/>
		<path style="fill:#D16062;" d="M243.961,34.928c0,0,4.954-0.093,6.058,5.95c1.104,6.042-1.2,11.738-6.734,10.968
			C235.327,50.738,236.05,35.834,243.961,34.928z"/>
		<path style="fill:#D16062;" d="M238.145,45.538l-1.822,8.162c0,0,0.911,3.172,5.161,3.476c2.297,0,2.935-0.81,2.935-0.81
			l1.184-8.298L238.145,45.538z"/>
		<path style="fill:#6295CD;" d="M243.782,32.343c0,0-16.931-1.392-16.931,16.606c6.365,0,12.63,0,12.63,0
			s-0.843-9.248,4.302-12.927c0,0,0.432,5.27,6.467,5.27C256.285,41.293,250.867,32.343,243.782,32.343z"/>
		<path style="fill:none;stroke:#3B2448;stroke-width:0.4838;stroke-miterlimit:10;" d="M243.285,48.778"/>
		<g>
			<path style="fill:#3B2448;" d="M242.138,44.078c0,0.317,0.257,0.573,0.573,0.573s0.573-0.257,0.573-0.573
				s-0.257-0.573-0.573-0.573S242.138,43.761,242.138,44.078z"/>
			<path style="fill:#3B2448;" d="M247.924,44.078c0,0.317,0.257,0.573,0.573,0.573c0.317,0,0.573-0.257,0.573-0.573
				s-0.257-0.573-0.573-0.573C248.18,43.504,247.924,43.761,247.924,44.078z"/>
			<path style="fill:none;stroke:#3B2448;stroke-width:0.4838;stroke-miterlimit:10;" d="M245.604,44.227c0,0,2.46,3.387,0,3.387"/>
			<path style="fill:none;stroke:#3B2448;stroke-width:0.4838;stroke-miterlimit:10;" d="M243.285,48.778c0,0,1.286,0.564,2.866,0"
				/>
			<path style="fill:none;stroke:#3B2448;stroke-width:0.4838;stroke-miterlimit:10;" d="M244.145,42.617c0,0-1.286-0.564-2.866,0"
				/>
			<path style="fill:none;stroke:#3B2448;stroke-width:0.4838;stroke-miterlimit:10;" d="M249.93,42.617c0,0-1.286-0.564-2.866,0"/>
		</g>
	</g>
	<g>
		<g>
			<path style="fill:#F5F6FA;" d="M284.602,458.563c0,2.396,12.65,4.338,28.254,4.338c15.604,0,28.254-1.942,28.254-4.338
				c0-2.396-12.65-4.338-28.254-4.338C297.252,454.225,284.602,456.167,284.602,458.563z"/>
		</g>
		<g>
			<g>
				<path style="fill:#4C3259;" d="M308.292,306.228c0,0-10.004,0.892-13.762,31.163c-3.34,14.405-12.792,28.067-12.792,28.067
					l2.771,1.577c0,0,20.843-15.866,23.782-45.094"/>
				<polygon style="fill:#4F7CA6;" points="299.304,357.432 301.803,455.135 306.796,455.135 319.373,357.432 				"/>
				<path style="fill:#6295CD;" d="M330.23,357.432c0,0-0.756,18.163-0.965,46.555s-2.505,51.148-2.505,51.148h-5.219
					c0,0-9.891-69.31-12.396-88.935c-1.044-7.098-0.835-8.768-0.835-8.768H330.23z"/>
				<path style="fill:#3B2448;" d="M331.222,365.437h-33.845c0,0,1.133-47.202,5.237-54.59s13.544-4.72,13.544-4.72
					s16.708,2.647,15.063,40.041C331.222,350.057,331.222,365.437,331.222,365.437z"/>
				<path style="fill:#4C3259;" d="M292.405,326.016c0,0,11.957,23.692,21.143,23.275c9.186-0.417,12.108-23.799,11.273-31.941
					c-0.835-8.142-10.647-11.065-11.9,0.835c-1.253,11.9-2.296,18.998-2.296,18.998l-15.449-12.735L292.405,326.016z"/>
				<path style="fill:#D16062;" d="M295.176,324.447c0,0-2.292-3.048-4.454-3.62c-2.289-0.572-2.099,0.636-1.463,1.017
					c0.636,0.382,2.035,1.399,2.035,1.399s-3.752-0.748-5.214-2.568c-1.463-1.82-1.717,1.487-0.572,3.585
					c1.145,2.099,6.897,1.755,6.897,1.755L295.176,324.447z"/>
				<path style="fill:#D16062;" d="M284.51,367.027c0,0-2.292,3.048-4.454,3.62c-2.289,0.572-2.098-0.636-1.463-1.017
					c0.636-0.382,2.035-1.399,2.035-1.399s-3.752,0.748-5.214,2.568c-1.463,1.82-1.717-1.487-0.572-3.585s6.897-1.755,6.897-1.755
					L284.51,367.027z"/>
			</g>
			<path style="fill:#D16062;" d="M314.021,284.614c0,0-5.426-0.987-7.719,5.454c-2.293,6.441-0.072,13.147,6.146,13.289
				C321.39,303.562,322.552,287.023,314.021,284.614z"/>
			<polygon style="fill:#D16062;" points="316.707,298.771 308.653,300.017 308.875,306.063 317.438,306.517 			"/>
			<path style="fill:#3B2448;" d="M306.583,453.925c-1.876,0.363-3.78,0.523-5.689,0.598c-1.883,0.074-4.63,0.647-6.308,3.099
				h12.338v-3.763L306.583,453.925z"/>
			<path style="fill:#3B2448;" d="M326.547,453.925c-1.876,0.363-3.78,0.523-5.689,0.598c-1.883,0.074-4.63,0.647-6.308,3.099
				h12.338v-3.763L326.547,453.925z"/>
			<path style="fill:#3B2448;" d="M316.974,301.602c0,0,3.433-1.058,4.454-9.464c1.021-8.406-3.86-11.486-8.806-11.627
				c-6.199-0.176-12.219,5.262-5.581,7.902c4.448,1.58,10.223,0.818,10.223,0.818s-1.224,3.751-1.1,6.678
				c1.414-2.043,3.457,0.157,2.671,1.807c-0.786,1.65-2.067,1.708-2.067,1.708L316.974,301.602z"/>
			<g>
				<path style="fill:#3B2448;" d="M314.069,294.221c0,0.317-0.257,0.573-0.573,0.573c-0.317,0-0.573-0.257-0.573-0.573
					c0-0.317,0.257-0.573,0.573-0.573C313.813,293.648,314.069,293.905,314.069,294.221z"/>
				<path style="fill:#3B2448;" d="M308.284,294.221c0,0.317-0.257,0.573-0.573,0.573s-0.573-0.257-0.573-0.573
					c0-0.317,0.257-0.573,0.573-0.573S308.284,293.905,308.284,294.221z"/>
				<path style="fill:none;stroke:#3B2448;stroke-width:0.4838;stroke-miterlimit:10;" d="M310.603,294.371c0,0-2.46,3.387,0,3.387"
					/>
				<path style="fill:none;stroke:#3B2448;stroke-width:0.4838;stroke-miterlimit:10;" d="M312.036,298.922c0,0-1.286,0.564-2.866,0
					"/>
				<path style="fill:none;stroke:#3B2448;stroke-width:0.4838;stroke-miterlimit:10;" d="M312.063,292.761c0,0,1.286-0.564,2.866,0
					"/>
				<path style="fill:none;stroke:#3B2448;stroke-width:0.4838;stroke-miterlimit:10;" d="M306.278,292.761c0,0,1.286-0.564,2.866,0
					"/>
			</g>
			<path style="fill:none;stroke:#3B2448;stroke-width:0.4838;stroke-miterlimit:10;" d="M317.933,296.205
				c0,0-1.113-0.357-1.113,1.07c0.892,0.036,0.856,0.999,0,1.035"/>
		</g>
	</g>
	<g>
		<g>
			<path style="fill:#F5F6FA;" d="M338.416,440.303c0,2.396,13.392,4.338,29.912,4.338s29.912-1.942,29.912-4.338
				c0-2.396-13.392-4.338-29.912-4.338S338.416,437.907,338.416,440.303z"/>
		</g>
		<g>
			<g>
				<path style="fill:#D16062;" d="M340.838,199.938c-9.599-7.325-17.134-17.832-17.134-17.832l-3.326,0.403
					c0,0,4.309,20.612,24.721,33.342l4.735-11.054C346.468,203.427,343.292,201.811,340.838,199.938z"/>
				<path style="fill:#4F7CA6;" d="M371.044,210.673c0,0-11.414-1.891-21.21-5.877l-4.735,11.054
					c5.745,3.583,12.763,6.542,21.322,8.24L371.044,210.673z"/>
			</g>
			<g>
				<path style="fill:#3B2448;" d="M352.624,265.059c0,0-1.282,9.395-1.535,52.589c-0.253,43.194,0,51.346,0,51.346h5.305
					l14.651-103.935H352.624z"/>
				<polygon style="fill:#3B2448;" points="359.93,265.059 379.526,367.941 384.686,368.995 383.674,265.059 				"/>
				<path style="fill:#6295CD;" d="M369.276,209.789c0,0-16.939,0.504-16.924,29.301c-0.758,17.934,0.272,25.969,0.272,25.969
					h31.051v-37.841C383.674,227.218,383.169,209.789,369.276,209.789z"/>
				<path style="fill:#D16062;" d="M323.88,223.996c0,0-2.292-3.048-4.454-3.62c-2.289-0.572-2.099,0.636-1.463,1.018
					c0.636,0.382,2.035,1.399,2.035,1.399s-3.752-0.748-5.215-2.568c-1.462-1.82-1.717,1.487-0.572,3.585
					c1.145,2.099,7.715,2.86,7.715,2.86L323.88,223.996z"/>
				<path style="fill:#D16062;" d="M323.703,182.106c0,0,0.535-3.776-0.59-5.709c-1.214-2.023-1.934-1.034-1.754-0.315
					c0.18,0.719,0.45,2.428,0.45,2.428s-2.124-3.182-1.871-5.503c0.253-2.321-2.265-0.163-2.94,2.13
					c-0.674,2.293,3.433,7.477,3.433,7.477L323.703,182.106z"/>
			</g>
			<path style="fill:#D16062;" d="M371.959,186.255c0,0,5.438,0.92,5.4,7.758c-0.038,6.837-3.099,12.076-9.485,11.221
				C359.009,204.047,363.118,185.614,371.959,186.255z"/>
			<polygon style="fill:#D16062;" points="368.03,202.42 367.548,209.999 375.361,211.179 375.361,199.568 			"/>
			<path style="fill:#3B2448;" d="M383.509,368.712c0,0,5.608-1.02,8.355,2.992h-12.338v-3.763L383.509,368.712z"/>
			<path style="fill:#3B2448;" d="M352.566,368.712c0,0-5.608-1.02-8.355,2.992h12.338v-3.763L352.566,368.712z"/>
			<path style="fill:#D16062;" d="M393.326,371.704c-5.523,0-45.146,0-50.923,0c-1.844,26.137-3.208,45.481-4.913,69.65h7.169
				l4.913-27.689h36.586l4.913,27.689h7.169C397.456,430.251,393.91,379.986,393.326,371.704z M351.087,404.912l3.451-19.561h26.711
				l3.431,19.561H351.087z"/>
			<g>
				<path style="fill:#D16062;" d="M348.124,225.387c-11.967,1.607-24.292-1.476-24.292-1.476l-1.906,2.759
					c0,0,19.407,13.527,44.81,5.695l-4.392-11.943C357.66,222.754,352.55,224.792,348.124,225.387z"/>
				<path style="fill:#4F7CA6;" d="M370.678,215.789c-2.388,1.456-5.27,3.107-8.334,4.632l4.392,11.943
					c3.519-1.085,7.151-2.57,10.863-4.562c3.264-1.751,4.535-5.802,2.913-9.132l0,0
					C378.721,214.996,374.169,213.662,370.678,215.789z"/>
			</g>
			<path style="fill:#6295CD;" d="M365.171,190.35c0,0,2.401,0.777,9.039,0.559c-1.306,2.612-0.707,6.202-0.707,6.202
				s0.722-1.333,2.122-0.653c1.4,0.681,0.704,3.636-1.088,3.809c0.381,1.251,0.825,1.904,0.825,1.904s3.31-2.122,3.31-9.249
				C378.671,183.51,365.171,184.328,365.171,190.35z"/>
			<g>
				<path style="fill:#3B2448;" d="M371.492,196.968c-0.034,0.315-0.316,0.543-0.631,0.509c-0.315-0.034-0.543-0.316-0.509-0.631
					c0.034-0.315,0.316-0.543,0.631-0.509C371.298,196.37,371.526,196.653,371.492,196.968z"/>
				<path style="fill:#3B2448;" d="M365.739,196.355c-0.034,0.315-0.316,0.543-0.631,0.509c-0.315-0.034-0.543-0.316-0.509-0.631
					c0.034-0.315,0.316-0.543,0.631-0.509C365.545,195.757,365.773,196.04,365.739,196.355z"/>
				<path style="fill:none;stroke:#3B2448;stroke-width:0.4838;stroke-miterlimit:10;" d="M368.03,196.749
					c0,0-2.805,3.107-0.359,3.368"/>
				<path style="fill:none;stroke:#3B2448;stroke-width:0.4838;stroke-miterlimit:10;" d="M368.973,201.426
					c0,0-1.339,0.425-2.85-0.304"/>
				<path style="fill:none;stroke:#3B2448;stroke-width:0.4838;stroke-miterlimit:10;" d="M369.652,195.303
					c0,0,1.339-0.425,2.85,0.304"/>
				<path style="fill:none;stroke:#3B2448;stroke-width:0.4838;stroke-miterlimit:10;" d="M363.899,194.69
					c0,0,1.339-0.425,2.85,0.304"/>
			</g>
		</g>
	</g>
</g>
<g id="DESIGNED_BY_FREEPIK">
	<g>
		<g id="XMLID_319_">
			<g id="XMLID_338_">
				<path id="XMLID_346_" style="fill:#A5B7C6;" d="M260.104,473.046c-0.432,0.443-0.803,0.931-1.108,1.453l-0.465-0.241
					c-0.067-0.298-0.349-0.503-0.659-0.466c-0.331,0.039-0.568,0.339-0.529,0.67c0.039,0.331,0.339,0.568,0.67,0.529
					c0.065-0.008,0.127-0.026,0.184-0.052l0.452,0.234c-0.251,0.554-0.433,1.139-0.539,1.744l0.747,0.132
					c0.23-1.306,0.85-2.507,1.792-3.473L260.104,473.046z"/>
				<path id="XMLID_345_" style="fill:#A5B7C6;" d="M265.592,470.744c-0.171,0-0.341,0.006-0.51,0.017l-0.074-0.626
					c0.188-0.149,0.296-0.389,0.266-0.645c-0.046-0.393-0.402-0.674-0.795-0.628c-0.393,0.046-0.674,0.402-0.628,0.795
					c0.03,0.254,0.189,0.461,0.405,0.564l0.073,0.624c-0.714,0.116-1.403,0.332-2.06,0.646l0.327,0.684
					c0.934-0.447,1.942-0.673,2.995-0.673c0.496,0,0.993,0.053,1.475,0.158l0.161-0.741
					C266.692,470.802,266.142,470.744,265.592,470.744z"/>
				<path id="XMLID_344_" style="fill:#A5B7C6;" d="M272.194,473.291c0.331-0.04,0.566-0.341,0.526-0.672
					c-0.04-0.331-0.341-0.566-0.672-0.526c-0.309,0.038-0.535,0.304-0.53,0.609l-0.416,0.363c-0.418-0.43-0.89-0.813-1.408-1.139
					l-0.404,0.641c1.134,0.715,2.021,1.726,2.563,2.925l0.691-0.313c-0.251-0.554-0.568-1.072-0.942-1.545l0.402-0.351
					C272.065,473.296,272.129,473.299,272.194,473.291z"/>
				<path id="XMLID_343_" style="fill:#A5B7C6;" d="M265.044,480.952c-0.386,0.023-0.775,0.035-1.157,0.035
					c-0.88,0-1.733-0.061-2.478-0.179c-0.39-0.062-0.846-0.155-1.27-0.292c1.046,1.861,3.069,3.125,5.388,3.125
					c2.855,0,5.262-1.916,5.95-4.504c-0.682,0.449-1.506,0.825-2.459,1.123C267.839,480.627,266.463,480.867,265.044,480.952z"/>
				<path id="XMLID_339_" style="fill:#A5B7C6;" d="M265.592,472.26c-3.352,0-6.08,2.666-6.08,5.943
					c0,0.426,0.046,0.849,0.137,1.261c0.673,0.483,2.706,0.89,5.348,0.731c2.879-0.173,5.297-0.957,6.672-2.159
					c-0.005-0.195-0.021-0.39-0.045-0.582C271.244,474.493,268.65,472.26,265.592,472.26z M263.432,478.775
					c-1.02,0-1.85-0.83-1.85-1.85c0-1.02,0.83-1.85,1.85-1.85c1.02,0,1.85,0.83,1.85,1.85
					C265.282,477.945,264.452,478.775,263.432,478.775z M268.17,477.866c-0.75,0-1.36-0.61-1.36-1.36s0.61-1.361,1.36-1.361
					c0.75,0,1.361,0.61,1.361,1.361S268.92,477.866,268.17,477.866z"/>
			</g>
			<path id="XMLID_336_" style="fill:#A5B7C6;" d="M281.595,474.127c-0.295-0.116-0.805-0.309-1.382-0.237
				c-0.551,0.069-0.844,0.341-0.844,1.007v0.866h2.228v1.717h-2.228v5.455h-1.932v-5.455h-1.34v-1.717h1.34v-0.888
				c0-1.68,0.896-2.783,2.568-2.783c0.643,0,1.157,0.122,1.59,0.308L281.595,474.127z"/>
			<path id="XMLID_334_" style="fill:#A5B7C6;" d="M286.298,477.459c-0.177-0.03-0.358-0.046-0.526-0.046
				c-0.896,0-1.51,0.548-1.51,1.613v3.908h-1.932v-7.172h1.873v0.785c0.451-0.673,1.14-0.977,2.021-0.977
				c0.414,0,0.848,0.128,1.094,0.337L286.298,477.459z"/>
			<path id="XMLID_331_" style="fill:#A5B7C6;" d="M293.965,479.337c0,0.222-0.015,0.489-0.037,0.651h-5.085
				c0.207,1.036,0.933,1.488,1.843,1.488c0.622,0,1.295-0.252,1.813-0.688l1.133,1.243c-0.814,0.748-1.85,1.088-3.057,1.088
				c-2.198,0-3.723-1.495-3.723-3.753c0-2.258,1.48-3.797,3.627-3.797C292.544,475.57,293.958,477.102,293.965,479.337z
				 M288.851,478.671h3.175c-0.177-0.918-0.733-1.436-1.562-1.436C289.554,477.235,289.021,477.783,288.851,478.671z"/>
			<path id="XMLID_328_" style="fill:#A5B7C6;" d="M301.618,479.337c0,0.222-0.015,0.489-0.037,0.651h-5.085
				c0.207,1.036,0.933,1.488,1.843,1.488c0.622,0,1.295-0.252,1.813-0.688l1.132,1.243c-0.814,0.748-1.85,1.088-3.057,1.088
				c-2.198,0-3.723-1.495-3.723-3.753c0-2.258,1.48-3.797,3.627-3.797C300.197,475.57,301.611,477.102,301.618,479.337z
				 M296.504,478.671h3.175c-0.178-0.918-0.733-1.436-1.562-1.436C297.207,477.235,296.674,477.783,296.504,478.671z"/>
			<path id="XMLID_325_" style="fill:#A5B7C6;" d="M309.964,479.345c0,2.154-1.495,3.775-3.471,3.775
				c-0.962,0-1.643-0.378-2.109-0.933v3.708h-1.924v-10.133h1.887v0.792c0.466-0.585,1.155-0.984,2.139-0.984
				C308.469,475.57,309.964,477.191,309.964,479.345z M304.287,479.345c0,1.132,0.747,1.976,1.843,1.976
				c1.14,0,1.85-0.881,1.85-1.976c0-1.095-0.71-1.976-1.85-1.976C305.035,477.368,304.287,478.212,304.287,479.345z"/>
			<path id="XMLID_322_" style="fill:#A5B7C6;" d="M313.068,473.416c0,0.696-0.54,1.229-1.236,1.229
				c-0.696,0-1.229-0.533-1.229-1.229c0-0.696,0.533-1.243,1.229-1.243C312.527,472.173,313.068,472.72,313.068,473.416z
				 M312.809,482.934h-1.932v-7.172h1.932V482.934z"/>
			<path id="XMLID_320_" style="fill:#A5B7C6;" d="M316.032,478.316l2.701-2.554h2.368l-3.479,3.375l3.501,3.797h-2.376
				l-2.716-2.901v2.901H314.1v-10.658h1.932V478.316z"/>
		</g>
		<g>
			<path style="fill:#A5B7C6;" d="M184.412,482.869v-1.055c-0.527,0.718-1.391,1.23-2.387,1.23c-1.846,0-3.149-1.406-3.149-3.706
				c0-2.256,1.289-3.721,3.149-3.721c0.952,0,1.816,0.469,2.387,1.245v-3.765h1.099v9.77H184.412z M184.412,480.95v-3.208
				c-0.395-0.615-1.245-1.143-2.124-1.143c-1.421,0-2.27,1.172-2.27,2.739c0,1.567,0.85,2.724,2.27,2.724
				C183.167,482.064,184.017,481.566,184.412,480.95z"/>
			<path style="fill:#A5B7C6;" d="M186.932,479.325c0-2.051,1.465-3.706,3.486-3.706c2.139,0,3.398,1.67,3.398,3.794v0.279h-5.727
				c0.088,1.333,1.025,2.446,2.549,2.446c0.805,0,1.626-0.322,2.182-0.894l0.527,0.718c-0.703,0.703-1.655,1.084-2.812,1.084
				C188.44,483.045,186.932,481.536,186.932,479.325z M190.403,476.527c-1.509,0-2.256,1.274-2.314,2.358h4.643
				C192.718,477.83,192.014,476.527,190.403,476.527z"/>
			<path style="fill:#A5B7C6;" d="M194.607,481.932l0.571-0.791c0.469,0.542,1.362,1.011,2.329,1.011c1.084,0,1.67-0.513,1.67-1.216
				c0-1.714-4.38-0.659-4.38-3.281c0-1.098,0.952-2.036,2.636-2.036c1.201,0,2.051,0.454,2.622,1.026l-0.513,0.762
				c-0.424-0.513-1.201-0.894-2.109-0.894c-0.967,0-1.567,0.483-1.567,1.113c0,1.552,4.38,0.527,4.38,3.281
				c0,1.187-0.952,2.138-2.783,2.138C196.306,483.045,195.324,482.693,194.607,481.932z"/>
			<path style="fill:#A5B7C6;" d="M201.477,474.051c0-0.41,0.337-0.747,0.732-0.747c0.41,0,0.747,0.337,0.747,0.747
				c0,0.41-0.337,0.732-0.747,0.732C201.814,474.783,201.477,474.461,201.477,474.051z M201.667,482.869v-7.075h1.099v7.075H201.667
				z"/>
			<path style="fill:#A5B7C6;" d="M204.582,484.686l0.556-0.82c0.586,0.703,1.289,0.967,2.3,0.967c1.172,0,2.27-0.571,2.27-2.124
				v-1.011c-0.513,0.718-1.377,1.26-2.373,1.26c-1.845,0-3.149-1.377-3.149-3.662c0-2.27,1.289-3.677,3.149-3.677
				c0.952,0,1.802,0.469,2.373,1.245v-1.069h1.098v6.87c0,2.344-1.641,3.076-3.369,3.076
				C206.237,485.74,205.417,485.506,204.582,484.686z M209.709,480.833v-3.091c-0.381-0.615-1.23-1.143-2.109-1.143
				c-1.421,0-2.27,1.128-2.27,2.695c0,1.553,0.849,2.695,2.27,2.695C208.478,481.99,209.328,481.449,209.709,480.833z"/>
			<path style="fill:#A5B7C6;" d="M217.413,482.869v-4.629c0-1.245-0.63-1.641-1.582-1.641c-0.865,0-1.685,0.527-2.095,1.099v5.17
				h-1.099v-7.075h1.099v1.025c0.498-0.586,1.465-1.201,2.519-1.201c1.48,0,2.256,0.747,2.256,2.285v4.966H217.413z"/>
			<path style="fill:#A5B7C6;" d="M219.932,479.325c0-2.051,1.465-3.706,3.486-3.706c2.138,0,3.398,1.67,3.398,3.794v0.279h-5.727
				c0.088,1.333,1.025,2.446,2.549,2.446c0.806,0,1.626-0.322,2.183-0.894l0.527,0.718c-0.703,0.703-1.655,1.084-2.812,1.084
				C221.441,483.045,219.932,481.536,219.932,479.325z M223.404,476.527c-1.509,0-2.256,1.274-2.314,2.358h4.643
				C225.718,477.83,225.015,476.527,223.404,476.527z"/>
			<path style="fill:#A5B7C6;" d="M233.35,482.869v-1.055c-0.527,0.718-1.392,1.23-2.388,1.23c-1.845,0-3.149-1.406-3.149-3.706
				c0-2.256,1.289-3.721,3.149-3.721c0.952,0,1.817,0.469,2.388,1.245v-3.765h1.098v9.77H233.35z M233.35,480.95v-3.208
				c-0.396-0.615-1.245-1.143-2.124-1.143c-1.421,0-2.27,1.172-2.27,2.739c0,1.567,0.849,2.724,2.27,2.724
				C232.105,482.064,232.954,481.566,233.35,480.95z"/>
			<path style="fill:#A5B7C6;" d="M239.692,482.869v-9.77h1.098v3.765c0.572-0.776,1.421-1.245,2.388-1.245
				c1.845,0,3.149,1.465,3.149,3.721c0,2.299-1.304,3.706-3.149,3.706c-0.996,0-1.86-0.513-2.388-1.23v1.055H239.692z
				 M242.9,482.064c1.436,0,2.286-1.157,2.286-2.724c0-1.568-0.85-2.739-2.286-2.739c-0.864,0-1.728,0.527-2.109,1.143v3.208
				C241.171,481.566,242.036,482.064,242.9,482.064z"/>
			<path style="fill:#A5B7C6;" d="M247.528,484.642c0.161,0.073,0.425,0.117,0.601,0.117c0.483,0,0.806-0.161,1.055-0.747
				l0.469-1.069l-2.959-7.148h1.187l2.358,5.8l2.344-5.8h1.201l-3.545,8.51c-0.425,1.025-1.143,1.421-2.08,1.435
				c-0.234,0-0.601-0.044-0.806-0.103L247.528,484.642z"/>
		</g>
	</g>
</g>
</svg>
